<svg xmlns="http://www.w3.org/2000/svg" viewBox="0 0 750 350" width="750" height="350" preserveAspectRatio="xMidYMid meet" style="width: 100%; height: 100%; transform: translate3d(0px, 0px, 0px);"><defs><clipPath id="__lottie_element_72"><rect width="750" height="350" x="0" y="0"></rect></clipPath><clipPath id="__lottie_element_74"><path d="M0,0 L1920,0 L1920,1080 L0,1080z"></path></clipPath></defs><g clip-path="url(#__lottie_element_72)"><g clip-path="url(#__lottie_element_74)" style="display: block;" transform="matrix(1,0,0,1,-585,-365)" opacity="1"><g style="display: block;" transform="matrix(0.44999998807907104,0,0,0.44999998807907104,960.5,540.6640014648438)" opacity="1"><g opacity="1" transform="matrix(0.3125,0,0,0.3125,-286.8420104980469,149.3419952392578)"><path stroke-linecap="butt" stroke-linejoin="miter" fill-opacity="0" stroke-miterlimit="4" stroke="rgb(6,6,50)" stroke-opacity="1" stroke-width="165" d=" M194.9980010986328,-0.8579999804496765 C194.99899291992188,-0.5720000267028809 195,-0.28600001335144043 195,0 C195,107.62049865722656 107.62049865722656,195 0,195 C-107.62049865722656,195 -195,107.62049865722656 -195,0 C-195,-0.7360000014305115 -194.99600219726562,-1.4709999561309814 -194.98800659179688,-2.2049999237060547"></path></g><g opacity="1" transform="matrix(0.30000001192092896,0,0,0.30000001192092896,288.1579895019531,149.3419952392578)"><path stroke-linecap="butt" stroke-linejoin="miter" fill-opacity="0" stroke-miterlimit="4" stroke="rgb(6,6,50)" stroke-opacity="1" stroke-width="165" d=" M-195,0 C-195,0 -195,0 -195,0 C-195,-107.62049865722656 -107.62049865722656,-195 0,-195 C0,-195 0,-195 0,-195 C107.62049865722656,-195 195,-107.62049865722656 195,0 C195,0 195,0 195,0"></path></g></g><g style="display: block;" transform="matrix(0.8449649810791016,0,0,0.8449649810791016,914.7444458007812,580.3612060546875)" opacity="1"><g opacity="1" transform="matrix(1,0,0,1,0,0)"><g opacity="1" transform="matrix(1,0,0,1,0,0)"><path fill="rgb(255,255,255)" fill-opacity="1" d=" M349.0150146484375,23.538999557495117 C349.0150146484375,23.538999557495117 349.0150146484375,74.56999969482422 349.0150146484375,74.56999969482422 C349.0150146484375,74.56999969482422 320.1889953613281,74.56999969482422 320.1889953613281,74.56999969482422 C320.1889953613281,74.56999969482422 320.1889953613281,27.52199935913086 320.1889953613281,27.52199935913086 C320.1889953613281,17.7810001373291 316.52899169921875,12.949000358581543 309.2749938964844,12.949000358581543 C300.2850036621094,12.949000358581543 295.114990234375,19.22800064086914 295.114990234375,29.8799991607666 C295.114990234375,29.8799991607666 295.114990234375,74.56999969482422 295.114990234375,74.56999969482422 C295.114990234375,74.56999969482422 266.2869873046875,74.56999969482422 266.2869873046875,74.56999969482422 C266.2869873046875,74.56999969482422 266.2869873046875,-9.121000289916992 266.2869873046875,-9.121000289916992 C266.2869873046875,-9.121000289916992 286.510986328125,-9.121000289916992 286.510986328125,-9.121000289916992 C286.510986328125,-9.121000289916992 290.47100830078125,-0.4909999966621399 290.47100830078125,-0.4909999966621399 C296.7030029296875,-7.434000015258789 305.9939880371094,-11.595999717712402 316.8160095214844,-11.595999717712402 C336.25201416015625,-11.595999717712402 349.0150146484375,2.2160000801086426 349.0150146484375,23.538999557495117z"></path></g><g opacity="1" transform="matrix(1,0,0,1,0,0)"><path fill="rgb(255,255,255)" fill-opacity="1" d=" M145.5760040283203,48.94300079345703 C145.5760040283203,48.94300079345703 145.5760040283203,74.56999969482422 145.5760040283203,74.56999969482422 C145.5760040283203,74.56999969482422 72.04199981689453,74.56999969482422 72.04199981689453,74.56999969482422 C72.04199981689453,74.56999969482422 72.04199981689453,70.29299926757812 72.04199981689453,70.29299926757812 C72.04199981689453,70.29299926757812 104.10099792480469,16.32900047302246 104.10099792480469,16.32900047302246 C104.10099792480469,16.32900047302246 74.88400268554688,16.32900047302246 74.88400268554688,16.32900047302246 C74.88400268554688,16.32900047302246 74.88400268554688,-9.121000289916992 74.88400268554688,-9.121000289916992 C74.88400268554688,-9.121000289916992 143.9770050048828,-9.121000289916992 143.9770050048828,-9.121000289916992 C143.9770050048828,-9.121000289916992 143.9770050048828,-4.418000221252441 143.9770050048828,-4.418000221252441 C143.9770050048828,-4.418000221252441 112.36900329589844,48.94300079345703 112.36900329589844,48.94300079345703 C112.36900329589844,48.94300079345703 145.5760040283203,48.94300079345703 145.5760040283203,48.94300079345703z"></path></g><g opacity="1" transform="matrix(1,0,0,1,0,0)"><g opacity="1" transform="matrix(1,0,0,1,0,0)"><path fill="rgb(255,255,255)" fill-opacity="1" d=" M29.415000915527344,-9.121999740600586 C29.415000915527344,-9.121999740600586 58.242000579833984,-9.121999740600586 58.242000579833984,-9.121999740600586 C58.242000579833984,-9.121999740600586 58.242000579833984,74.56900024414062 58.242000579833984,74.56900024414062 C58.242000579833984,74.56900024414062 29.415000915527344,74.56900024414062 29.415000915527344,74.56900024414062 C29.415000915527344,74.56900024414062 29.415000915527344,-9.121999740600586 29.415000915527344,-9.121999740600586z"></path></g><g opacity="1" transform="matrix(1,0,0,1,0,0)"><path fill="rgb(255,255,255)" fill-opacity="1" d=" M29.400999069213867,-47.696998596191406 C29.400999069213867,-47.696998596191406 58.242000579833984,-47.696998596191406 58.242000579833984,-47.696998596191406 C58.242000579833984,-47.696998596191406 58.242000579833984,-22.927000045776367 58.242000579833984,-22.927000045776367 C58.242000579833984,-22.927000045776367 29.400999069213867,-22.927000045776367 29.400999069213867,-22.927000045776367 C29.400999069213867,-22.927000045776367 29.400999069213867,-47.696998596191406 29.400999069213867,-47.696998596191406z"></path></g></g><g opacity="1" transform="matrix(1,0,0,1,0,0)"><path fill="rgb(255,255,255)" fill-opacity="1" d=" M15.625,-9.519000053405762 C15.625,-9.519000053405762 15.625,16.861000061035156 15.625,16.861000061035156 C15.625,16.861000061035156 4.434000015258789,16.861000061035156 4.434000015258789,16.861000061035156 C-5.770999908447266,16.861000061035156 -10.045999526977539,21.336999893188477 -10.045999526977539,32.012001037597656 C-10.045999526977539,32.012001037597656 -10.045999526977539,74.56999969482422 -10.045999526977539,74.56999969482422 C-10.045999526977539,74.56999969482422 -38.87300109863281,74.56999969482422 -38.87300109863281,74.56999969482422 C-38.87300109863281,74.56999969482422 -38.87300109863281,-9.121000289916992 -38.87300109863281,-9.121000289916992 C-38.87300109863281,-9.121000289916992 -19.559999465942383,-9.121000289916992 -19.559999465942383,-9.121000289916992 C-19.559999465942383,-9.121000289916992 -15.062999725341797,0.1679999977350235 -15.062999725341797,0.1679999977350235 C-9.16100025177002,-6.658999919891357 -1.972000002861023,-9.519000053405762 7.988999843597412,-9.519000053405762 C7.988999843597412,-9.519000053405762 15.625,-9.519000053405762 15.625,-9.519000053405762z"></path></g><g opacity="1" transform="matrix(1,0,0,1,0,0)"><path fill="rgb(255,255,255)" fill-opacity="1" d=" M-159.33200073242188,24.17300033569336 C-159.33200073242188,24.17300033569336 -159.33200073242188,74.56999969482422 -159.33200073242188,74.56999969482422 C-159.33200073242188,74.56999969482422 -188.15899658203125,74.56999969482422 -188.15899658203125,74.56999969482422 C-188.15899658203125,74.56999969482422 -188.15899658203125,27.52199935913086 -188.15899658203125,27.52199935913086 C-188.15899658203125,17.8700008392334 -191.55099487304688,12.949000358581543 -199.072998046875,12.949000358581543 C-207.79600524902344,12.949000358581543 -213.23399353027344,19.139999389648438 -213.23399353027344,29.8799991607666 C-213.23399353027344,29.8799991607666 -213.23399353027344,74.56999969482422 -213.23399353027344,74.56999969482422 C-213.23399353027344,74.56999969482422 -242.06100463867188,74.56999969482422 -242.06100463867188,74.56999969482422 C-242.06100463867188,74.56999969482422 -242.06100463867188,-39.34199905395508 -242.06100463867188,-39.34199905395508 C-242.06100463867188,-39.34199905395508 -213.23399353027344,-39.34199905395508 -213.23399353027344,-39.34199905395508 C-213.23399353027344,-39.34199905395508 -213.23399353027344,-3.614000082015991 -213.23399353027344,-3.614000082015991 C-207.07200622558594,-8.57699966430664 -199.23399353027344,-11.595999717712402 -190.89300537109375,-11.595999717712402 C-171.6790008544922,-11.595999717712402 -159.33200073242188,2.4800000190734863 -159.33200073242188,24.17300033569336z"></path></g><g opacity="1" transform="matrix(1,0,0,1,0,0)"><path fill="rgb(255,255,255)" fill-opacity="1" d=" M126.28399658203125,-137.76100158691406 C126.28399658203125,-137.76100158691406 109.73300170898438,-91.65799713134766 109.73300170898438,-91.65799713134766 C109.73300170898438,-91.65799713134766 91.97200012207031,-137.76100158691406 91.97200012207031,-137.76100158691406 C91.97200012207031,-137.76100158691406 60.64699935913086,-137.76100158691406 60.64699935913086,-137.76100158691406 C60.64699935913086,-137.76100158691406 95.23200225830078,-60.98400115966797 95.23200225830078,-60.98400115966797 C91.32599639892578,-50.569000244140625 88,-47.696998596191406 76.97100067138672,-47.696998596191406 C76.97100067138672,-47.696998596191406 72.04299926757812,-47.696998596191406 72.04299926757812,-47.696998596191406 C72.04299926757812,-47.696998596191406 72.04299926757812,-22.927000045776367 72.04299926757812,-22.927000045776367 C72.04299926757812,-22.927000045776367 78.91500091552734,-22.927000045776367 78.91500091552734,-22.927000045776367 C100.52400207519531,-22.927000045776367 110.89399719238281,-32.18000030517578 122.17500305175781,-57.79399871826172 C122.17500305175781,-57.79399871826172 157.2519989013672,-137.76100158691406 157.2519989013672,-137.76100158691406 C157.2519989013672,-137.76100158691406 126.28399658203125,-137.76100158691406 126.28399658203125,-137.76100158691406z"></path></g><g opacity="1" transform="matrix(1,0,0,1,0,0)"><path fill="rgb(255,255,255)" fill-opacity="1" d=" M53.904998779296875,-95.91500091552734 C53.904998779296875,-69.84100341796875 35.612998962402344,-51.237998962402344 10.022000312805176,-51.237998962402344 C2.4539999961853027,-51.237998962402344 -4.473999977111816,-53.22800064086914 -10.380000114440918,-56.79600143432617 C-10.380000114440918,-56.79600143432617 -10.380000114440918,-22.927000045776367 -10.380000114440918,-22.927000045776367 C-10.380000114440918,-22.927000045776367 -38.87900161743164,-22.927000045776367 -38.87900161743164,-22.927000045776367 C-38.87900161743164,-22.927000045776367 -38.87900161743164,-137.76100158691406 -38.87900161743164,-137.76100158691406 C-38.87900161743164,-137.76100158691406 -19.274999618530273,-137.76100158691406 -19.274999618530273,-137.76100158691406 C-19.274999618530273,-137.76100158691406 -15.663999557495117,-131.11199951171875 -15.663999557495117,-131.11199951171875 C-8.781000137329102,-137.06300354003906 0.07699999958276749,-140.50399780273438 10.022000312805176,-140.50399780273438 C35.612998962402344,-140.50399780273438 53.904998779296875,-121.98899841308594 53.904998779296875,-95.91500091552734z M24.899999618530273,-95.91699981689453 C24.899999618530273,-106.91200256347656 16.964000701904297,-115.06900024414062 6.165999889373779,-115.06900024414062 C-4.631999969482422,-115.06900024414062 -12.569000244140625,-106.91200256347656 -12.569000244140625,-95.91699981689453 C-12.569000244140625,-84.9219970703125 -4.631999969482422,-76.76399993896484 6.165999889373779,-76.76399993896484 C16.89699935913086,-76.76399993896484 24.899999618530273,-84.9219970703125 24.899999618530273,-95.91699981689453z"></path></g><g opacity="1" transform="matrix(1,0,0,1,0,0)"><path fill="rgb(255,255,255)" fill-opacity="1" d=" M-52.707000732421875,-95.91500091552734 C-52.707000732421875,-69.84100341796875 -70.9990005493164,-51.237998962402344 -96.58999633789062,-51.237998962402344 C-104.15799713134766,-51.237998962402344 -111.08599853515625,-53.22800064086914 -116.99199676513672,-56.79600143432617 C-116.99199676513672,-56.79600143432617 -116.99199676513672,-22.927000045776367 -116.99199676513672,-22.927000045776367 C-116.99199676513672,-22.927000045776367 -145.49099731445312,-22.927000045776367 -145.49099731445312,-22.927000045776367 C-145.49099731445312,-22.927000045776367 -145.49099731445312,-137.76100158691406 -145.49099731445312,-137.76100158691406 C-145.49099731445312,-137.76100158691406 -125.88700103759766,-137.76100158691406 -125.88700103759766,-137.76100158691406 C-125.88700103759766,-137.76100158691406 -122.2760009765625,-131.11199951171875 -122.2760009765625,-131.11199951171875 C-115.39299774169922,-137.06300354003906 -106.53500366210938,-140.50399780273438 -96.58999633789062,-140.50399780273438 C-70.9990005493164,-140.50399780273438 -52.707000732421875,-121.98899841308594 -52.707000732421875,-95.91500091552734z M-81.71199798583984,-95.91699981689453 C-81.71199798583984,-106.91200256347656 -89.64800262451172,-115.06900024414062 -100.44599914550781,-115.06900024414062 C-111.24400329589844,-115.06900024414062 -119.18099975585938,-106.91200256347656 -119.18099975585938,-95.91699981689453 C-119.18099975585938,-84.9219970703125 -111.24400329589844,-76.76399993896484 -100.44599914550781,-76.76399993896484 C-89.71499633789062,-76.76399993896484 -81.71199798583984,-84.9219970703125 -81.71199798583984,-95.91699981689453z"></path></g><g opacity="1" transform="matrix(1,0,0,1,0,0)"><path fill="rgb(255,255,255)" fill-opacity="1" d=" M-159.32200622558594,-137.8489990234375 C-159.32200622558594,-137.8489990234375 -159.32200622558594,-54.15800094604492 -159.32200622558594,-54.15800094604492 C-159.32200622558594,-54.15800094604492 -181.60699462890625,-54.15800094604492 -181.60699462890625,-54.15800094604492 C-181.60699462890625,-54.15800094604492 -184.0760040283203,-60.07699966430664 -184.0760040283203,-60.07699966430664 C-190.9290008544922,-54.5260009765625 -199.60800170898438,-51.32699966430664 -209.32899475097656,-51.32699966430664 C-234.9199981689453,-51.32699966430664 -253.21200561523438,-69.99600219726562 -253.21200561523438,-96.00499725341797 C-253.21200561523438,-121.92400360107422 -234.9199981689453,-140.3719940185547 -209.32899475097656,-140.3719940185547 C-199.4720001220703,-140.3719940185547 -190.66700744628906,-137.0800018310547 -183.75599670410156,-131.3780059814453 C-183.75599670410156,-131.3780059814453 -180.8070068359375,-137.8509979248047 -180.8070068359375,-137.8509979248047 C-180.8070068359375,-137.8509979248047 -159.32200622558594,-137.8489990234375 -159.32200622558594,-137.8489990234375z M-186.74000549316406,-95.93800354003906 C-186.74000549316406,-106.8010025024414 -194.67599487304688,-114.95999908447266 -205.4739990234375,-114.95999908447266 C-216.33599853515625,-114.95999908447266 -224.20899963378906,-106.8010025024414 -224.20899963378906,-95.93800354003906 C-224.20899963378906,-85.00900268554688 -216.27200317382812,-76.85099792480469 -205.4739990234375,-76.85099792480469 C-194.67599487304688,-76.85099792480469 -186.74000549316406,-85.00900268554688 -186.74000549316406,-95.93800354003906z"></path></g><g opacity="1" transform="matrix(1,0,0,1,0,0)"><path fill="rgb(255,255,255)" fill-opacity="1" d=" M-267.02899169921875,-104.46700286865234 C-267.02899169921875,-104.46700286865234 -267.02899169921875,-54.06999969482422 -267.02899169921875,-54.06999969482422 C-267.02899169921875,-54.06999969482422 -295.8559875488281,-54.06999969482422 -295.8559875488281,-54.06999969482422 C-295.8559875488281,-54.06999969482422 -295.8559875488281,-101.11799621582031 -295.8559875488281,-101.11799621582031 C-295.8559875488281,-110.7699966430664 -299.24700927734375,-115.69100189208984 -306.7699890136719,-115.69100189208984 C-315.4930114746094,-115.69100189208984 -320.9309997558594,-109.5009994506836 -320.9309997558594,-98.76100158691406 C-320.9309997558594,-98.76100158691406 -320.9309997558594,-54.06999969482422 -320.9309997558594,-54.06999969482422 C-320.9309997558594,-54.06999969482422 -349.75799560546875,-54.06999969482422 -349.75799560546875,-54.06999969482422 C-349.75799560546875,-54.06999969482422 -349.75799560546875,-167.98199462890625 -349.75799560546875,-167.98199462890625 C-349.75799560546875,-167.98199462890625 -320.9309997558594,-167.98199462890625 -320.9309997558594,-167.98199462890625 C-320.9309997558594,-167.98199462890625 -320.9309997558594,-132.25399780273438 -320.9309997558594,-132.25399780273438 C-314.7690124511719,-137.2169952392578 -306.9309997558594,-140.23599243164062 -298.5899963378906,-140.23599243164062 C-279.37701416015625,-140.23599243164062 -267.02899169921875,-126.16000366210938 -267.02899169921875,-104.46700286865234z"></path></g></g></g></g></g></svg>