<svg xmlns="http://www.w3.org/2000/svg" version="1.1" xmlns:xlink="http://www.w3.org/1999/xlink" xmlns:svgjs="http://svgjs.dev/svgjs" width="1000" height="1000"><style>
    #light-icon {
      display: inline;
    }
    #dark-icon {
      display: none;
    }

    @media (prefers-color-scheme: dark) {
      #light-icon {
        display: none;
      }
      #dark-icon {
        display: inline;
      }
    }
  </style><g id="light-icon"><svg xmlns="http://www.w3.org/2000/svg" version="1.1" xmlns:xlink="http://www.w3.org/1999/xlink" xmlns:svgjs="http://svgjs.dev/svgjs" width="1000" height="1000"><g><g transform="matrix(8.695652173913043,0,0,8.695652173913043,0,169.56521739130437)"><svg xmlns="http://www.w3.org/2000/svg" version="1.1" xmlns:xlink="http://www.w3.org/1999/xlink" xmlns:svgjs="http://svgjs.dev/svgjs" width="115" height="76"><svg width="115" height="76" viewBox="0 0 115 76" fill="none" xmlns="http://www.w3.org/2000/svg">
<path d="M21.89 37.71L32.94 18.57H82.49L93.21 0H22.22L0.440002 37.71L22.22 75.42L32.94 56.85L21.89 37.71Z" fill="url(#paint0_linear_532_5209)"></path>
<path d="M93.21 0L82.49 18.57L93.54 37.71L82.49 56.85H32.94L22.22 75.42H93.21L114.98 37.71L93.21 0Z" fill="url(#paint1_linear_532_5209)"></path>
<path d="M78.41 23.1H74.78V21.22C74.78 20.27 74.01 19.49 73.05 19.49C72.09 19.49 71.32 20.26 71.32 21.22V23.1H67.69C66.97 23.1 66.38 23.69 66.38 24.41V43.84C66.38 44.56 66.97 45.15 67.69 45.15H71.32V49.53C71.32 50.48 72.09 51.26 73.05 51.26C74.01 51.26 74.78 50.49 74.78 49.53V45.15H78.41C79.13 45.15 79.72 44.56 79.72 43.84V24.41C79.72 23.69 79.13 23.1 78.41 23.1Z" fill="#008429"></path>
<path d="M63.07 25.41H59.44V23.53C59.44 22.58 58.67 21.8 57.71 21.8C56.75 21.8 55.98 22.57 55.98 23.53V25.41H52.35C51.63 25.41 51.04 26 51.04 26.72V46.15C51.04 46.87 51.63 47.46 52.35 47.46H55.98V51.84C55.98 52.79 56.75 53.57 57.71 53.57C58.67 53.57 59.44 52.8 59.44 51.84V47.46H63.07C63.79 47.46 64.38 46.87 64.38 46.15V26.72C64.38 26 63.79 25.41 63.07 25.41Z" fill="#008429"></path>
<path d="M47.72 27.72H44.09V25.84C44.09 24.89 43.32 24.11 42.36 24.11C41.4 24.11 40.63 24.88 40.63 25.84V27.72H37C36.28 27.72 35.69 28.31 35.69 29.03V48.46C35.69 49.18 36.28 49.77 37 49.77H40.63V54.15C40.63 55.1 41.4 55.88 42.36 55.88C43.32 55.88 44.09 55.11 44.09 54.15V49.77H47.72C48.44 49.77 49.03 49.18 49.03 48.46V29.03C49.03 28.31 48.44 27.72 47.72 27.72Z" fill="#008429"></path>
<defs>
<linearGradient id="paint0_linear_532_5209" x1="14.23" y1="-5.77" x2="89.78" y2="69.78" gradientUnits="userSpaceOnUse">
<stop stop-color="#009A2B"></stop>
<stop offset="1" stop-color="#0E113C"></stop>
</linearGradient>
<linearGradient id="paint1_linear_532_5209" x1="51.06" y1="31.06" x2="123.33" y2="103.33" gradientUnits="userSpaceOnUse">
<stop stop-color="#009A2B"></stop>
<stop offset="1" stop-color="#0E113C"></stop>
</linearGradient>
</defs>
</svg></svg></g></g></svg></g><g id="dark-icon"><svg xmlns="http://www.w3.org/2000/svg" version="1.1" xmlns:xlink="http://www.w3.org/1999/xlink" xmlns:svgjs="http://svgjs.dev/svgjs" width="1000" height="1000"><g clip-path="url(#SvgjsClipPath1101)"><rect width="1000" height="1000" fill="#ffffff"></rect><g transform="matrix(6.956521739130435,0,0,6.956521739130435,100,235.6521739130435)"><svg xmlns="http://www.w3.org/2000/svg" version="1.1" xmlns:xlink="http://www.w3.org/1999/xlink" xmlns:svgjs="http://svgjs.dev/svgjs" width="115" height="76"><svg width="115" height="76" viewBox="0 0 115 76" fill="none" xmlns="http://www.w3.org/2000/svg">
<path d="M21.89 37.71L32.94 18.57H82.49L93.21 0H22.22L0.440002 37.71L22.22 75.42L32.94 56.85L21.89 37.71Z" fill="url(#paint0_linear_532_5209)"></path>
<path d="M93.21 0L82.49 18.57L93.54 37.71L82.49 56.85H32.94L22.22 75.42H93.21L114.98 37.71L93.21 0Z" fill="url(#paint1_linear_532_5209)"></path>
<path d="M78.41 23.1H74.78V21.22C74.78 20.27 74.01 19.49 73.05 19.49C72.09 19.49 71.32 20.26 71.32 21.22V23.1H67.69C66.97 23.1 66.38 23.69 66.38 24.41V43.84C66.38 44.56 66.97 45.15 67.69 45.15H71.32V49.53C71.32 50.48 72.09 51.26 73.05 51.26C74.01 51.26 74.78 50.49 74.78 49.53V45.15H78.41C79.13 45.15 79.72 44.56 79.72 43.84V24.41C79.72 23.69 79.13 23.1 78.41 23.1Z" fill="#008429"></path>
<path d="M63.07 25.41H59.44V23.53C59.44 22.58 58.67 21.8 57.71 21.8C56.75 21.8 55.98 22.57 55.98 23.53V25.41H52.35C51.63 25.41 51.04 26 51.04 26.72V46.15C51.04 46.87 51.63 47.46 52.35 47.46H55.98V51.84C55.98 52.79 56.75 53.57 57.71 53.57C58.67 53.57 59.44 52.8 59.44 51.84V47.46H63.07C63.79 47.46 64.38 46.87 64.38 46.15V26.72C64.38 26 63.79 25.41 63.07 25.41Z" fill="#008429"></path>
<path d="M47.72 27.72H44.09V25.84C44.09 24.89 43.32 24.11 42.36 24.11C41.4 24.11 40.63 24.88 40.63 25.84V27.72H37C36.28 27.72 35.69 28.31 35.69 29.03V48.46C35.69 49.18 36.28 49.77 37 49.77H40.63V54.15C40.63 55.1 41.4 55.88 42.36 55.88C43.32 55.88 44.09 55.11 44.09 54.15V49.77H47.72C48.44 49.77 49.03 49.18 49.03 48.46V29.03C49.03 28.31 48.44 27.72 47.72 27.72Z" fill="#008429"></path>
<defs>
<linearGradient id="paint0_linear_532_5209" x1="14.23" y1="-5.77" x2="89.78" y2="69.78" gradientUnits="userSpaceOnUse">
<stop stop-color="#009A2B"></stop>
<stop offset="1" stop-color="#0E113C"></stop>
</linearGradient>
<linearGradient id="paint1_linear_532_5209" x1="51.06" y1="31.06" x2="123.33" y2="103.33" gradientUnits="userSpaceOnUse">
<stop stop-color="#009A2B"></stop>
<stop offset="1" stop-color="#0E113C"></stop>
</linearGradient>
<clipPath id="SvgjsClipPath1101"><rect width="1000" height="1000" x="0" y="0" rx="100" ry="100"></rect></clipPath></defs>
</svg></svg></g></g></svg></g></svg>